<svg width="313" height="313" viewBox="0 0 313 313" fill="none" xmlns="http://www.w3.org/2000/svg">
<circle cx="156.336" cy="156.336" r="156.336" fill="white"/>
<path d="M206.299 196.79V95.293C211.895 97.3845 218.344 98.6762 225.268 98.6762C246.229 98.6762 263.206 87.6654 263.206 74.071C263.206 60.4766 246.229 49.4658 225.268 49.4658C204.307 49.4658 187.33 60.4766 187.33 74.071V172.184L111.454 95.293L206.299 196.79Z" fill="black"/>
<path d="M106.373 88.1365V209.798C100.777 207.36 94.3274 205.855 87.4037 205.855C66.4429 205.855 49.4656 218.687 49.4656 234.531C49.4656 250.374 66.4429 263.206 87.4037 263.206C108.364 263.206 125.342 250.374 125.342 234.531L123.664 118.779L206.276 196.947V184.75L106.373 88.1365Z" fill="black"/>
</svg>
