<svg width="121" height="66" viewBox="0 0 121 66" fill="none" xmlns="http://www.w3.org/2000/svg">
<rect x="1" y="-1" width="118.75" height="63.8636" transform="matrix(1 0 0 -1 0 63.8638)" fill="url(#paint0_linear)" stroke="#424242" stroke-width="2"/>
<path d="M88.3187 17.0583L58.8731 33.0431L88.1978 48.9622C87.4324 47.8976 86.4355 46.4405 85.4378 44.7808C84.4025 43.0583 83.3614 41.1092 82.5779 39.1481C81.7966 37.1926 81.2584 35.1933 81.2584 33.3789C81.2584 31.566 81.7959 29.5258 82.5758 27.5099C83.3582 25.4876 84.3981 23.4558 85.4326 21.6503C86.4677 19.8434 87.5022 18.255 88.2776 17.1185C88.2914 17.0983 88.3051 17.0783 88.3187 17.0583Z" fill="white" stroke="#424242"/>
<path d="M64.7428 17.0583L35.2972 33.0431L64.6219 48.9622C63.8565 47.8976 62.8596 46.4405 61.8619 44.7808C60.8266 43.0583 59.7854 41.1092 59.0019 39.1481C58.2207 37.1926 57.6825 35.1933 57.6825 33.3789C57.6825 31.566 58.22 29.5258 58.9999 27.5099C59.7823 25.4876 60.8222 23.4558 61.8566 21.6503C62.8918 19.8434 63.9262 18.255 64.7017 17.1185C64.7154 17.0983 64.7291 17.0783 64.7428 17.0583Z" fill="white" stroke="#424242"/>
<rect x="36.0336" y="49.9955" width="4.35821" height="33.9049" transform="rotate(-180 36.0336 49.9955)" fill="white" stroke="#424242"/>
<defs>
<linearGradient id="paint0_linear" x1="60.375" y1="0" x2="60.375" y2="65.8636" gradientUnits="userSpaceOnUse">
<stop/>
<stop offset="0.392265" stop-color="#212121" stop-opacity="0.97"/>
<stop offset="0.734807" stop-color="#1D1D1D" stop-opacity="0.652841"/>
<stop offset="1"/>
</linearGradient>
</defs>
</svg>
