<svg width="121" height="66" viewBox="0 0 121 66" fill="none" xmlns="http://www.w3.org/2000/svg">
<rect x="120" y="64.8638" width="118.75" height="63.8636" transform="rotate(-180 120 64.8638)" fill="url(#paint0_linear)" stroke="#424242" stroke-width="2"/>
<path d="M32.6811 17.0582L62.1267 33.043L32.8019 48.9621C33.5674 47.8974 34.5643 46.4404 35.5619 44.7807C36.5973 43.0582 37.6384 41.1091 38.4219 39.148C39.2032 37.1925 39.7413 35.1931 39.7413 33.3788C39.7413 31.5659 39.2038 29.5257 38.4239 27.5098C37.6415 25.4875 36.6017 23.4557 35.5672 21.6501C34.532 19.8433 33.4976 18.2549 32.7222 17.1184C32.7084 17.0982 32.6947 17.0781 32.6811 17.0582Z" fill="white" stroke="#424242"/>
<path d="M56.2572 17.0582L85.7028 33.043L56.3781 48.9621C57.1435 47.8974 58.1404 46.4404 59.1381 44.7807C60.1734 43.0582 61.2146 41.1091 61.9981 39.148C62.7793 37.1925 63.3175 35.1931 63.3175 33.3788C63.3175 31.5659 62.78 29.5257 62.0001 27.5098C61.2177 25.4875 60.1778 23.4557 59.1434 21.6501C58.1082 19.8433 57.0738 18.2549 56.2983 17.1184C56.2846 17.0982 56.2709 17.0781 56.2572 17.0582Z" fill="white" stroke="#424242"/>
<rect x="0.5" y="-0.5" width="4.35821" height="33.9049" transform="matrix(1 0 0 -1 84.4662 49.4955)" fill="white" stroke="#424242"/>
<defs>
<linearGradient id="paint0_linear" x1="181.375" y1="65.8638" x2="181.375" y2="131.727" gradientUnits="userSpaceOnUse">
<stop/>
<stop offset="0.392265" stop-color="#212121" stop-opacity="0.97"/>
<stop offset="0.734807" stop-color="#1D1D1D" stop-opacity="0.652841"/>
<stop offset="1"/>
</linearGradient>
</defs>
</svg>
